<?xml version="1.0" standalone="no"?>
<!DOCTYPE svg PUBLIC "-//W3C//DTD SVG 20010904//EN"
 "http://www.w3.org/TR/2001/REC-SVG-20010904/DTD/svg10.dtd">
<svg version="1.0" xmlns="http://www.w3.org/2000/svg"
 width="3301.000000pt" height="1417.000000pt" viewBox="0 0 3301.000000 1417.000000"
 preserveAspectRatio="xMidYMid meet">

<g transform="translate(0.000000,1417.000000) scale(0.100000,-0.100000)"
fill="#000000" stroke="none">
<path d="M1180 8280 l0 -3050 4220 0 4220 0 0 3050 0 3050 -4220 0 -4220 0 0
-3050z m8168 -2 l2 -2748 -3890 0 -3890 0 0 2750 0 2750 3888 -2 3887 -3 3
-2747z"/>
<path d="M8465 10425 c-218 -51 -388 -128 -616 -280 -470 -314 -820 -729
-1152 -1365 -112 -214 -183 -409 -266 -730 l-29 -115 -59 3 c-32 2 -59 4 -59
5 -6 6 63 381 97 530 129 570 280 977 464 1253 36 54 64 105 63 113 -5 24 -80
33 -213 26 -236 -12 -408 -52 -584 -136 -427 -203 -750 -604 -1037 -1285 -36
-87 -86 -198 -110 -245 l-43 -87 -63 4 c-421 27 -639 30 -893 14 -588 -38
-1055 -152 -1455 -356 -378 -192 -577 -394 -626 -638 -30 -147 11 -281 121
-392 112 -113 235 -162 494 -199 485 -70 859 -56 1248 45 294 76 564 240 818
495 174 174 293 351 421 624 35 73 65 135 67 137 2 2 120 -13 263 -35 142 -22
337 -49 432 -62 116 -16 172 -27 172 -35 0 -35 -270 -1026 -351 -1288 -54
-176 -60 -225 -29 -256 24 -24 49 -25 93 -6 59 25 103 85 181 246 81 168 116
272 302 900 58 195 107 361 109 368 4 9 28 12 92 10 l88 -3 16 -60 c45 -168
166 -320 309 -388 130 -62 312 -108 510 -128 365 -37 865 64 1245 250 152 75
215 123 215 164 0 31 -24 57 -52 57 -11 0 -61 -19 -112 -41 -228 -103 -413
-164 -601 -199 -363 -67 -699 -67 -905 1 -157 51 -284 152 -340 270 -16 35
-30 69 -30 75 0 7 21 15 48 19 152 21 280 71 326 125 58 69 36 80 -160 80 -89
0 -169 2 -177 5 -18 7 -8 75 33 231 102 385 304 774 582 1124 188 236 520 574
728 743 89 71 235 164 298 187 177 67 330 35 390 -80 34 -65 26 -124 -42 -307
-125 -336 -245 -581 -467 -948 -152 -253 -162 -280 -115 -324 30 -28 59 -24
104 14 67 57 416 626 560 915 143 286 205 488 206 675 1 104 -1 113 -29 165
-72 131 -239 172 -480 115z m-1909 -769 c3 -8 -47 -110 -112 -226 -213 -386
-275 -568 -430 -1262 -20 -91 -40 -172 -45 -179 -6 -10 -50 -7 -221 15 -379
49 -586 79 -598 86 -7 5 8 48 48 136 397 867 799 1335 1227 1429 81 18 124 18
131 1z m-1858 -1757 c61 -6 112 -13 112 -15 0 -2 -20 -46 -44 -97 -181 -378
-450 -657 -818 -852 -294 -154 -566 -222 -933 -232 -213 -6 -337 4 -515 44
-218 48 -334 109 -389 204 -38 67 -45 119 -26 193 21 79 70 150 171 245 182
173 378 277 698 370 334 98 649 139 1146 150 336 7 439 5 598 -10z"/>
<path d="M15607 10589 c-81 -19 -151 -79 -187 -162 -32 -71 -31 -189 1 -254
37 -73 65 -88 162 -88 72 0 88 3 130 28 112 66 173 227 137 359 -18 64 -114
130 -185 127 -11 -1 -37 -5 -58 -10z"/>
<path d="M12040 10506 c-307 -128 -634 -400 -980 -816 l-92 -110 -123 0 c-67
0 -176 -3 -242 -6 l-120 -7 -35 -146 -35 -146 158 -3 159 -2 -59 -88 c-88
-130 -135 -210 -200 -341 -50 -98 -111 -236 -111 -248 0 -2 107 -3 238 -3
l237 0 49 106 c60 128 173 319 281 473 l80 114 272 -7 c257 -7 271 -7 277 11
15 52 76 272 76 277 0 3 -33 6 -72 6 -121 0 -298 13 -298 21 0 4 76 86 169
181 233 239 417 398 443 382 15 -9 9 -35 -128 -639 -141 -619 -162 -737 -144
-805 32 -118 165 -168 363 -136 93 15 332 87 351 106 9 9 39 151 33 157 -2 2
-30 -9 -63 -23 -77 -34 -164 -43 -187 -19 -35 34 -20 125 124 750 131 571 143
634 135 677 -13 73 -147 186 -317 268 -99 48 -154 52 -239 16z"/>
<path d="M13034 10417 c3 -34 2 -97 -4 -140 -5 -42 -75 -355 -155 -694 -168
-710 -185 -788 -185 -853 0 -63 31 -108 95 -140 46 -23 61 -25 170 -24 122 2
284 28 341 56 23 11 31 25 45 81 l17 69 -21 -6 c-12 -4 -48 -12 -79 -18 -67
-13 -88 -3 -88 43 0 16 70 331 155 701 170 742 187 828 183 920 l-3 63 -239 3
-239 2 7 -63z"/>
<path d="M14760 9953 c-104 -10 -340 -42 -348 -47 -5 -3 -12 -25 -16 -48 -4
-24 -9 -53 -12 -65 -6 -21 -4 -22 43 -16 31 3 58 1 72 -7 20 -10 22 -17 16
-48 -10 -54 -93 -231 -222 -477 -64 -121 -124 -233 -133 -248 l-18 -28 -6 33
c-22 123 -67 531 -92 856 l-6 72 -229 0 c-182 0 -229 -3 -229 -13 0 -104 62
-609 105 -862 59 -346 90 -435 160 -470 35 -17 58 -20 180 -18 77 1 176 4 220
8 l81 6 141 217 c299 461 507 834 548 986 15 56 15 66 2 98 -9 20 -27 44 -41
53 -26 17 -133 26 -216 18z"/>
<path d="M16797 9950 c-341 -31 -558 -130 -701 -321 -133 -177 -203 -409 -194
-646 5 -146 23 -183 132 -269 44 -35 119 -83 166 -106 183 -91 265 -52 609
290 79 79 145 142 146 140 2 -2 -8 -37 -21 -78 -87 -272 -59 -371 111 -394 71
-10 244 10 372 42 119 30 118 29 138 134 l7 35 -78 -20 c-98 -24 -124 -16
-124 40 0 21 54 279 119 573 65 294 118 536 117 537 -1 1 -83 11 -181 23 -210
24 -479 32 -618 20z m283 -322 c0 -27 -84 -165 -165 -274 -135 -181 -283 -327
-435 -427 -67 -44 -111 -55 -130 -33 -20 25 -6 147 30 260 95 295 203 414 420
460 126 26 280 34 280 14z"/>
<path d="M15280 9883 c14 -93 -5 -193 -166 -838 -52 -208 -65 -271 -62 -318 7
-95 56 -140 174 -159 83 -13 244 2 370 35 l88 22 17 70 c10 38 17 70 16 71 -1
2 -31 -4 -66 -12 -74 -17 -107 -13 -116 16 -3 11 37 202 94 437 128 536 134
570 115 686 l-7 37 -232 0 -232 0 7 -47z"/>
<path d="M31650 8821 c-105 -34 -193 -111 -238 -209 -23 -48 -27 -71 -27 -147
0 -82 3 -97 33 -157 41 -84 120 -158 200 -188 80 -30 204 -26 282 11 71 33
141 104 176 177 50 106 42 253 -20 351 -33 52 -110 119 -164 144 -51 22 -196
33 -242 18z m226 -96 c61 -30 124 -100 145 -162 24 -68 18 -161 -14 -225 -108
-219 -410 -222 -517 -5 -125 254 134 515 386 392z"/>
<path d="M31590 8470 l0 -190 45 0 45 0 0 71 0 70 37 -3 c35 -3 40 -8 73 -68
l35 -65 54 -3 c29 -2 51 1 50 5 -28 63 -72 143 -87 157 -19 17 -19 17 9 46 41
40 41 100 0 141 -29 29 -31 29 -145 29 l-116 0 0 -190z m183 99 c14 -23 1 -67
-23 -74 -41 -13 -60 3 -60 51 l0 45 36 -3 c21 -2 41 -10 47 -19z"/>
<path d="M21535 7870 c-88 -22 -151 -74 -186 -153 -34 -75 -34 -213 -1 -275
58 -109 246 -109 349 -1 41 43 79 129 88 196 21 160 -99 272 -250 233z"/>
<path d="M11370 7791 c-107 -24 -192 -53 -299 -102 -296 -137 -554 -417 -652
-709 -44 -130 -52 -294 -20 -421 44 -176 165 -363 322 -499 134 -115 275 -183
459 -223 127 -27 381 -28 520 -2 148 28 340 98 403 147 13 10 32 68 62 194 24
98 42 181 40 183 -2 1 -50 -15 -107 -37 -193 -76 -376 -128 -530 -152 -113
-18 -333 -8 -428 20 -99 28 -206 80 -252 122 -31 29 -37 42 -44 93 -10 86 12
253 47 360 99 297 341 581 591 695 110 49 181 64 318 64 119 1 127 0 176 -27
70 -39 82 -63 60 -122 -66 -171 -300 -319 -539 -342 l-67 -6 5 -31 c3 -17 14
-89 25 -160 10 -70 21 -131 24 -133 3 -3 54 -8 113 -10 194 -9 365 38 531 147
105 69 170 139 215 230 30 62 32 71 32 180 0 109 -2 119 -33 184 -72 153 -263
285 -507 351 -96 26 -358 30 -465 6z"/>
<path d="M30529 7777 c-309 -135 -631 -408 -979 -829 l-73 -88 -137 0 c-75 0
-184 -3 -242 -6 l-105 -7 -35 -146 -35 -146 159 -3 159 -3 -54 -77 c-29 -42
-77 -116 -106 -164 -51 -86 -193 -372 -206 -415 l-6 -23 238 0 238 0 49 106
c60 128 177 325 283 477 l78 110 272 -7 c255 -6 272 -6 277 11 14 47 76 272
76 276 0 3 -83 8 -185 12 -102 4 -185 11 -185 16 0 14 337 355 439 443 92 80
156 126 175 126 15 0 0 -77 -130 -644 -139 -612 -162 -738 -145 -803 37 -137
201 -181 453 -120 138 34 266 83 272 105 11 39 27 134 24 137 -2 3 -32 -7 -66
-21 -87 -35 -156 -42 -182 -19 -38 35 -25 113 121 750 133 581 143 633 135
680 -14 75 -185 212 -353 283 -74 32 -132 29 -224 -11z"/>
<path d="M27209 7765 c-357 -49 -680 -227 -779 -429 -115 -235 -20 -442 265
-582 67 -33 222 -90 396 -148 158 -52 305 -104 327 -115 87 -44 104 -108 52
-198 -17 -29 -38 -57 -48 -62 -32 -17 -282 -41 -428 -41 -223 0 -452 29 -672
85 -66 16 -94 20 -97 12 -7 -24 -75 -318 -75 -327 0 -10 223 -64 351 -85 165
-26 384 -36 535 -25 296 23 503 94 692 238 213 161 292 390 203 579 -58 121
-152 177 -511 303 -352 124 -501 190 -550 242 -24 26 -26 77 -5 117 10 21 26
31 57 39 214 52 678 47 1048 -12 l78 -12 39 170 c35 154 37 172 22 178 -43 17
-259 59 -375 73 -154 18 -392 18 -525 0z"/>
<path d="M23975 7693 c4 -39 2 -102 -5 -148 -7 -44 -81 -374 -166 -733 -165
-698 -181 -777 -170 -837 10 -50 59 -99 117 -116 93 -27 330 -8 470 37 45 14
46 16 59 72 7 31 15 63 18 71 4 11 0 13 -19 7 -118 -33 -169 -27 -169 21 0 14
67 319 149 677 188 818 185 802 185 916 l1 95 -238 3 -238 2 6 -67z"/>
<path d="M13060 7225 c-324 -53 -576 -271 -635 -550 -33 -159 -12 -342 56
-476 38 -78 168 -211 249 -256 230 -130 545 -129 815 2 161 77 278 206 342
375 149 397 -39 792 -424 891 -103 26 -291 33 -403 14z m378 -290 c63 -19 66
-28 57 -159 -25 -360 -227 -646 -456 -646 -47 0 -163 36 -179 55 -20 24 -7
251 20 345 56 198 187 364 318 404 62 19 176 20 240 1z"/>
<path d="M15163 7210 c-119 -60 -280 -237 -413 -454 -30 -49 -56 -84 -57 -79
-2 5 13 75 32 154 37 148 53 279 41 343 l-7 36 -236 0 -236 0 7 -41 c11 -71
-12 -203 -134 -751 -66 -296 -120 -540 -120 -543 0 -3 98 -5 218 -5 l219 0 37
88 c90 209 246 476 395 676 135 182 221 257 221 192 0 -20 -182 -894 -196
-938 -5 -17 10 -18 213 -18 l218 0 65 138 c113 239 261 481 401 657 135 171
199 222 199 158 0 -14 -39 -201 -86 -415 -61 -274 -84 -399 -80 -422 11 -56
46 -99 101 -120 90 -34 313 -21 481 29 l49 14 18 67 c9 37 16 68 15 69 -2 2
-34 -4 -73 -12 -73 -15 -115 -8 -115 20 0 8 41 191 91 407 100 436 110 500 86
547 -41 78 -233 198 -358 225 -54 11 -59 10 -115 -17 -80 -38 -228 -189 -368
-373 -59 -79 -110 -142 -111 -140 -2 2 8 69 22 149 17 91 23 156 19 174 -18
74 -212 199 -326 211 -48 5 -63 2 -117 -26z"/>
<path d="M17595 7234 c-210 -31 -409 -119 -580 -255 -141 -113 -232 -228 -282
-357 -35 -90 -44 -269 -18 -358 55 -192 204 -331 410 -384 223 -57 595 -40
824 38 l55 19 48 174 c26 96 47 175 48 176 0 1 -29 -11 -65 -28 -157 -71 -365
-107 -552 -95 -133 9 -222 36 -269 82 -19 20 -33 38 -30 41 3 3 60 13 128 23
273 40 519 128 685 246 159 113 229 281 173 412 -39 91 -171 192 -316 243 -58
20 -196 32 -259 23z m223 -295 c84 -29 25 -122 -138 -219 -85 -51 -220 -95
-365 -120 -154 -26 -149 -27 -131 8 30 58 109 153 164 197 67 53 176 110 247
130 61 16 181 19 223 4z"/>
<path d="M19589 7224 c-96 -17 -193 -52 -265 -95 -113 -68 -269 -234 -384
-409 -24 -36 -40 -57 -37 -47 54 154 97 348 97 437 0 109 21 100 -244 100
l-231 0 -1 -88 c-1 -101 -1 -103 -145 -746 -60 -269 -109 -493 -109 -497 0 -5
105 -9 233 -9 l232 0 22 86 c61 236 203 473 403 675 143 145 279 219 401 219
l48 0 11 43 c6 23 29 108 51 188 21 81 39 150 39 153 0 9 -35 6 -121 -10z"/>
<path d="M20490 7234 c-14 -2 -56 -9 -95 -15 -212 -35 -410 -142 -568 -309
-137 -143 -197 -289 -197 -480 0 -173 47 -287 163 -396 76 -72 185 -131 292
-159 82 -21 247 -36 320 -29 89 9 237 34 254 43 13 8 125 350 117 359 -2 2
-17 -3 -33 -11 -15 -8 -66 -27 -113 -42 -71 -23 -103 -28 -195 -29 -124 -1
-181 17 -243 77 -61 58 -76 100 -76 207 -1 133 35 237 130 381 l44 66 96 13
c112 15 323 8 424 -14 36 -8 67 -12 70 -9 11 10 88 299 82 305 -25 24 -387 57
-472 42z"/>
<path d="M22711 7229 c-303 -27 -468 -94 -627 -253 -80 -81 -97 -104 -147
-206 -31 -63 -65 -148 -76 -188 -41 -152 -50 -340 -20 -446 14 -50 71 -111
164 -175 170 -118 262 -139 370 -86 76 37 150 99 343 289 89 88 162 157 162
154 0 -4 -16 -62 -36 -130 -56 -193 -43 -275 52 -323 73 -37 317 -18 510 40
l51 15 15 67 c8 38 14 69 13 70 0 1 -21 -4 -45 -11 -93 -27 -118 -28 -140 -6
-27 27 -34 -10 107 623 63 285 113 520 111 522 -6 7 -240 34 -377 45 -153 11
-292 11 -430 -1z m299 -315 c0 -24 -96 -181 -176 -288 -109 -145 -237 -277
-355 -366 -141 -106 -200 -123 -213 -63 -17 74 63 349 137 472 85 142 206 215
399 240 77 10 208 13 208 5z"/>
<path d="M21207 7148 c8 -92 -6 -164 -123 -636 -115 -467 -123 -523 -86 -584
26 -42 90 -73 172 -82 113 -13 421 38 439 73 11 21 34 121 30 126 -2 1 -36 -4
-76 -13 -83 -17 -103 -10 -103 39 0 16 45 214 100 441 104 431 124 546 112
638 l-7 55 -231 3 -232 2 5 -62z"/>
<path d="M28340 6355 c-67 -21 -124 -75 -162 -152 -28 -57 -33 -77 -33 -142 0
-97 23 -144 88 -185 40 -25 57 -29 115 -29 145 0 255 102 281 260 17 106 -14
199 -78 237 -43 25 -151 31 -211 11z"/>
<path d="M31447 6356 c-90 -33 -163 -110 -189 -200 -16 -60 -14 -166 5 -202
42 -82 145 -126 243 -104 62 14 104 40 153 96 91 104 105 292 27 370 -52 52
-156 69 -239 40z"/>
<path d="M24717 6235 c-46 -268 -150 -498 -286 -629 l-40 -39 71 -79 c79 -88
70 -86 173 -39 113 52 249 186 336 332 74 123 143 320 184 527 l7 32 -214 0
-214 0 -17 -105z"/>
<path d="M3246 4418 c-15 -62 -98 -412 -184 -778 l-158 -665 134 -3 c74 -1
136 -1 138 1 2 2 85 347 184 768 99 420 183 770 185 777 3 9 -28 12 -134 12
l-139 0 -26 -112z"/>
<path d="M7093 4408 l-29 -123 135 -3 c73 -1 135 -1 137 0 1 2 16 58 32 126
l29 122 -138 0 -137 0 -29 -122z"/>
<path d="M9042 4427 c-13 -56 -26 -112 -29 -125 l-5 -23 137 3 138 3 23 100
c13 55 26 110 29 123 5 22 5 22 -132 22 l-138 0 -23 -103z"/>
<path d="M13497 4413 c-15 -65 -27 -121 -27 -125 0 -5 61 -8 135 -8 l134 0 10
38 c6 20 17 69 26 107 9 39 18 78 21 88 5 16 -6 17 -133 17 l-139 0 -27 -117z"/>
<path d="M14847 4383 c-19 -82 -50 -209 -68 -284 l-32 -137 -32 34 c-18 19
-59 46 -91 61 -50 23 -76 28 -167 31 -94 4 -117 1 -191 -22 -190 -59 -333
-211 -407 -432 -83 -244 -52 -475 77 -593 63 -58 121 -80 224 -88 134 -9 256
28 340 103 l43 39 -7 -45 c-4 -25 -10 -53 -12 -62 -5 -17 6 -18 129 -18 l135
0 11 48 c30 133 352 1489 356 1500 3 9 -28 12 -134 12 l-138 0 -36 -147z
m-249 -520 c92 -68 101 -199 31 -419 -64 -200 -164 -294 -314 -294 -147 0
-208 72 -208 245 0 106 21 191 68 284 46 92 95 144 168 181 58 29 68 31 145
28 63 -3 89 -9 110 -25z"/>
<path d="M16345 4518 c-5 -14 -55 -227 -55 -234 0 -3 62 -3 137 -2 l137 3 28
115 c15 63 27 118 28 123 0 4 -61 7 -135 7 -100 0 -137 -3 -140 -12z"/>
<path d="M29067 4413 c-15 -65 -27 -122 -27 -126 0 -4 61 -6 136 -5 l137 3 23
100 c13 55 26 110 29 123 5 22 5 22 -133 22 l-138 0 -27 -117z"/>
<path d="M2093 4338 c-71 -123 -627 -1083 -724 -1250 l-68 -118 147 0 148 0
110 193 110 192 275 3 276 2 23 -195 24 -195 138 0 c136 0 138 0 138 22 0 24
-156 1359 -166 1416 l-5 32 -184 0 -183 0 -59 -102z m207 -164 c0 -40 41 -456
55 -561 l6 -43 -216 0 c-170 0 -216 3 -212 13 2 6 49 91 103 187 55 97 133
239 174 317 41 78 78 139 82 137 4 -3 8 -25 8 -50z"/>
<path d="M11920 4427 c0 -17 158 -1372 166 -1419 l6 -38 167 0 167 0 440 727
c241 399 441 730 442 735 2 4 -64 8 -146 8 l-150 0 -288 -497 c-158 -274 -317
-554 -353 -623 l-66 -125 -3 80 c-2 70 -81 969 -97 1113 l-6 52 -140 0 c-106
0 -139 -3 -139 -13z"/>
<path d="M21043 4428 c-9 -11 -460 -790 -742 -1278 l-100 -175 136 -3 c76 -1
142 -1 148 2 6 2 60 90 120 195 l109 191 275 -2 275 -3 23 -180 c12 -99 22
-186 22 -192 1 -10 36 -13 141 -13 77 0 140 3 140 8 0 4 -38 329 -85 722 -47
393 -85 720 -85 727 0 18 -363 19 -377 1z m183 -570 c15 -153 25 -280 22 -283
-3 -3 -100 -4 -215 -3 l-210 3 99 175 c54 96 135 245 181 331 l82 157 6 -52
c4 -28 19 -176 35 -328z"/>
<path d="M5505 4069 c-66 -23 -102 -45 -159 -98 l-38 -36 6 40 c4 22 9 52 12
68 l6 27 -134 0 -133 0 -124 -528 c-68 -290 -126 -537 -129 -549 -4 -23 -4
-23 132 -23 75 0 136 2 136 5 0 4 36 158 80 343 82 342 109 425 165 491 81 96
265 109 309 22 28 -54 18 -122 -69 -493 -47 -198 -85 -361 -85 -364 0 -2 61
-4 135 -4 74 0 135 2 135 5 0 3 36 160 81 348 89 376 112 440 183 505 100 92
268 82 303 -18 17 -47 14 -63 -83 -471 -46 -196 -84 -359 -84 -362 0 -4 60 -7
133 -7 l132 0 93 393 c99 419 107 479 76 570 -21 61 -86 121 -155 141 -69 21
-210 21 -280 0 -74 -22 -116 -45 -182 -98 -54 -45 -56 -45 -62 -24 -12 40 -55
87 -98 110 -63 33 -219 36 -302 7z"/>
<path d="M8097 4079 c-57 -14 -134 -56 -184 -102 l-46 -42 6 30 c4 17 9 47 13
68 l6 37 -134 0 -135 0 -12 -57 c-7 -32 -64 -275 -127 -540 -63 -265 -114
-486 -114 -492 0 -7 45 -11 135 -11 131 0 135 1 140 23 3 12 39 164 80 337 85
356 106 412 186 484 58 52 97 66 190 66 83 0 127 -26 147 -85 18 -54 15 -74
-78 -465 -44 -185 -80 -342 -80 -349 0 -8 41 -11 134 -11 120 0 135 2 140 18
3 9 44 179 92 377 73 300 87 374 88 445 0 72 -3 93 -25 135 -31 60 -91 109
-161 130 -56 16 -199 19 -261 4z"/>
<path d="M9842 4070 c-208 -55 -363 -202 -441 -417 -96 -263 -47 -516 119
-623 87 -56 159 -73 300 -74 207 -1 332 46 460 174 142 142 221 360 207 573
-12 194 -118 324 -304 372 -82 21 -250 19 -341 -5z m255 -191 c41 -13 89 -68
102 -116 28 -101 3 -273 -58 -398 -67 -135 -152 -203 -266 -212 -84 -7 -136 9
-178 56 -44 49 -57 93 -57 197 0 238 131 449 300 485 39 8 109 3 157 -12z"/>
<path d="M15930 4083 c-105 -17 -190 -64 -265 -145 -41 -44 -54 -54 -50 -37 3
13 12 57 19 97 l14 72 -134 0 c-130 0 -134 -1 -139 -22 -64 -290 -99 -441
-169 -730 l-83 -348 139 0 c76 0 138 2 138 5 0 3 31 135 69 294 86 358 114
421 224 494 61 41 99 54 203 70 l77 12 28 115 c15 63 28 118 29 123 0 7 -56 8
-100 0z"/>
<path d="M17124 4071 c-260 -70 -432 -276 -481 -572 -57 -348 141 -566 497
-546 184 11 304 61 421 177 129 128 196 289 206 496 5 96 3 122 -16 182 -38
126 -111 203 -239 253 -82 32 -287 37 -388 10z m252 -192 c38 -12 78 -53 98
-101 23 -53 21 -187 -4 -282 -54 -211 -165 -331 -317 -344 -110 -8 -197 45
-222 135 -27 96 -4 275 50 389 83 176 233 253 395 203z"/>
<path d="M22316 4075 c-110 -28 -185 -72 -272 -159 -139 -140 -203 -294 -211
-511 -5 -115 -3 -137 17 -194 57 -168 173 -246 385 -258 197 -11 365 45 479
159 57 58 126 169 126 205 0 10 -28 13 -132 13 l-133 -1 -34 -55 c-42 -69 -96
-109 -169 -125 -107 -22 -194 12 -240 96 -24 43 -23 227 2 315 40 145 121 266
211 313 57 30 181 31 221 1 48 -35 67 -70 72 -129 l4 -55 133 0 c131 0 133 0
139 23 8 34 -10 133 -34 183 -32 64 -117 138 -192 164 -82 29 -283 37 -372 15z"/>
<path d="M23530 4074 c-221 -58 -382 -227 -455 -479 -81 -280 -12 -514 178
-600 159 -73 439 -51 590 45 90 57 184 175 212 268 l6 22 -135 0 -135 0 -16
-31 c-25 -46 -84 -108 -126 -130 -79 -40 -194 -34 -254 13 -47 37 -65 91 -65
199 0 170 59 336 155 434 79 82 190 107 282 65 52 -23 80 -66 89 -137 l6 -53
135 0 136 0 -5 73 c-10 159 -99 262 -267 309 -80 22 -250 23 -331 2z"/>
<path d="M24746 4074 c-160 -39 -313 -164 -395 -322 -105 -204 -121 -446 -40
-607 67 -134 238 -206 454 -192 221 15 380 111 473 285 l33 62 -140 0 -139 0
-22 -35 c-26 -43 -72 -81 -119 -101 -38 -16 -152 -21 -192 -9 -92 29 -144 141
-125 269 l7 46 388 0 388 0 14 63 c8 34 14 112 14 172 0 98 -3 116 -26 166
-50 107 -131 172 -254 204 -74 19 -239 18 -319 -1z m251 -188 c39 -19 62 -48
79 -93 14 -40 18 -103 8 -140 l-6 -23 -244 0 c-278 0 -262 -6 -217 88 36 78
117 156 179 176 57 18 159 15 201 -8z"/>
<path d="M25870 4074 c-188 -50 -292 -175 -277 -336 6 -69 40 -133 92 -172 36
-28 160 -88 289 -141 41 -17 87 -46 113 -70 36 -35 43 -48 43 -81 0 -92 -63
-139 -185 -139 -122 0 -189 46 -210 143 l-7 32 -134 0 -134 0 0 -40 c0 -63 37
-148 87 -197 81 -82 199 -118 378 -118 236 1 387 70 455 209 65 131 35 274
-73 355 -64 48 -99 66 -257 130 -145 60 -180 87 -180 143 0 51 22 83 71 102
120 48 269 -16 269 -116 l0 -28 136 0 137 0 -6 50 c-17 140 -108 232 -272 275
-76 19 -260 19 -335 -1z"/>
<path d="M27102 4070 c-224 -59 -376 -210 -453 -450 -54 -166 -49 -342 12
-461 105 -208 450 -273 728 -137 184 89 311 278 351 520 37 230 -36 414 -197
496 -106 55 -301 68 -441 32z m258 -192 c66 -25 100 -84 107 -188 11 -153 -50
-341 -143 -440 -72 -77 -112 -95 -214 -95 -107 0 -146 21 -184 97 -22 44 -26
65 -26 143 0 252 126 460 300 496 39 8 122 1 160 -13z"/>
<path d="M28640 4074 c-92 -24 -153 -60 -218 -128 -34 -35 -62 -61 -62 -58 1
4 7 36 15 72 26 118 35 110 -115 110 -126 0 -130 -1 -135 -22 -54 -238 -129
-562 -183 -788 l-69 -285 135 -3 c74 -1 136 -1 138 0 1 2 32 127 68 279 71
304 83 339 134 418 63 95 168 152 309 167 62 6 63 7 72 43 23 87 51 200 51
205 0 11 -84 5 -140 -10z"/>
<path d="M29872 4070 c-208 -55 -363 -202 -441 -417 -96 -263 -47 -516 119
-623 158 -102 414 -105 610 -9 229 112 376 394 357 682 -12 194 -118 324 -304
372 -82 21 -250 19 -341 -5z m255 -191 c41 -13 89 -68 102 -116 41 -147 -30
-410 -141 -522 -69 -69 -109 -86 -209 -86 -75 0 -90 3 -122 25 -59 40 -81 90
-85 197 -11 251 119 476 298 514 39 8 109 3 157 -12z"/>
<path d="M31048 4075 c-181 -44 -283 -156 -282 -310 1 -142 72 -215 301 -306
113 -45 191 -88 214 -120 12 -18 19 -44 19 -74 0 -40 -5 -52 -33 -80 -51 -51
-143 -69 -229 -45 -68 19 -128 87 -128 145 l0 25 -140 0 -140 0 0 -27 c0 -62
33 -144 78 -194 85 -95 197 -133 387 -133 141 0 220 16 307 60 145 74 216 223
174 368 -30 102 -121 173 -331 256 -111 44 -172 77 -189 102 -36 51 -7 126 60
154 43 18 135 18 177 0 38 -16 87 -69 87 -96 0 -48 5 -50 141 -50 l129 0 0 38
c0 133 -109 248 -271 287 -79 18 -254 18 -331 0z"/>
<path d="M3661 3676 c-85 -357 -93 -402 -89 -466 7 -87 38 -153 96 -197 60
-45 111 -58 227 -56 123 1 195 24 278 89 l59 46 -7 -44 c-3 -24 -9 -51 -11
-60 -5 -17 6 -18 129 -18 l135 0 17 78 c21 97 234 993 240 1010 3 9 -28 12
-134 12 l-139 0 -47 -192 c-26 -106 -62 -258 -82 -338 -40 -167 -70 -236 -127
-299 -54 -59 -113 -84 -197 -85 -73 0 -106 14 -136 61 -30 45 -20 120 56 438
40 165 78 326 86 358 l13 57 -136 0 -137 0 -94 -394z"/>
<path d="M6884 3523 l-131 -548 135 -3 c74 -1 136 -1 137 0 2 2 60 242 129
533 70 292 129 538 132 548 5 16 -6 17 -133 17 l-139 0 -130 -547z"/>
<path d="M8955 4058 c-7 -22 -255 -1070 -255 -1079 0 -5 61 -9 135 -9 l134 0
10 38 c15 55 251 1050 251 1057 0 3 -61 5 -135 5 -100 0 -137 -3 -140 -12z"/>
<path d="M13415 4058 c-7 -21 -255 -1068 -255 -1079 0 -5 57 -9 134 -9 120 0
135 2 140 18 7 22 256 1072 256 1078 0 2 -61 4 -135 4 -100 0 -137 -3 -140
-12z"/>
<path d="M16231 4033 c-15 -58 -251 -1051 -251 -1058 0 -3 62 -4 137 -3 l136
3 128 535 c71 294 128 541 129 548 0 9 -33 12 -135 12 l-134 0 -10 -37z"/>
<path d="M18604 4033 c4 -21 38 -274 76 -562 l69 -524 -24 -41 c-38 -65 -94
-125 -136 -146 -29 -15 -59 -20 -126 -20 l-88 0 -23 -97 c-12 -54 -18 -101
-14 -105 5 -5 69 -9 143 -9 200 0 275 28 381 138 77 81 97 114 488 793 188
327 344 598 347 603 2 4 -62 6 -143 5 l-147 -3 -106 -196 c-58 -108 -158 -298
-221 -422 -63 -125 -118 -227 -122 -227 -5 0 -8 21 -8 48 0 26 -16 213 -35
417 -19 203 -35 373 -35 377 0 5 -63 8 -141 8 l-141 0 6 -37z"/>
<path d="M28985 4058 c-7 -22 -255 -1070 -255 -1079 0 -5 61 -9 135 -9 l134 0
10 38 c15 55 251 1050 251 1057 0 3 -61 5 -135 5 -100 0 -137 -3 -140 -12z"/>
<path d="M10737 3293 c-3 -5 -20 -46 -37 -93 -43 -112 -126 -288 -178 -377
-23 -39 -42 -74 -42 -77 0 -3 47 -6 104 -6 l104 0 33 37 c48 56 110 155 169
273 51 101 100 220 100 240 0 12 -246 14 -253 3z"/>
</g>
</svg>
